<svg width="20" height="19" viewBox="0 0 20 19" fill="none" xmlns="http://www.w3.org/2000/svg">
<path fill-rule="evenodd" clip-rule="evenodd" d="M18.2531 13.6685C18.2531 13.28 18.5692 12.964 18.9598 12.964C19.3505 12.964 19.6665 13.28 19.6665 13.6685C19.6665 13.686 19.6665 13.7036 19.6643 13.7211V15.4088C19.6643 16.9605 18.4068 18.218 16.8551 18.218H2.80919C1.25755 18.218 0 16.9605 0 15.4088V2.80919C0 1.25755 1.25755 0 2.80919 0H8.11811L8.12031 0.00219481C8.32441 -0.00219454 8.55705 0.0702298 8.71945 0.353343L9.04427 0.917375H15.0994C16.5962 0.917375 17.8208 2.14201 17.8208 3.63878V3.66072C18.8962 4.05576 19.6621 5.08726 19.6621 6.29872V7.9996C19.6643 8.01716 19.6643 8.03471 19.6643 8.05227C19.6643 8.44073 19.3483 8.75676 18.9576 8.75676C18.567 8.75676 18.2509 8.44073 18.2509 8.05227V6.29653C18.2509 5.52181 17.6211 4.89194 16.8463 4.89194H10.2074C9.9375 4.92266 9.66097 4.79537 9.51612 4.54518L7.70112 1.4002H2.81797C2.04324 1.4002 1.41337 2.03008 1.41337 2.8048V15.4396C1.41337 16.2143 2.04324 16.8442 2.81797 16.8442H16.8485C17.6233 16.8442 18.2531 16.2143 18.2531 15.4396V13.6685ZM16.3745 3.48954C16.2626 2.82674 15.6832 2.31758 14.9896 2.31758H9.8541L10.5301 3.48954H16.3745ZM18.4601 11.3596C18.3275 11.2275 18.2531 11.0483 18.2531 10.8614C18.2531 10.6746 18.3275 10.4954 18.4601 10.3633C18.5926 10.2312 18.7723 10.157 18.9598 10.157C19.1472 10.157 19.3269 10.2312 19.4595 10.3633C19.592 10.4954 19.6665 10.6746 19.6665 10.8614C19.6665 11.0483 19.592 11.2275 19.4595 11.3596C19.3269 11.4917 19.1472 11.5659 18.9598 11.5659C18.7723 11.5659 18.5926 11.4917 18.4601 11.3596Z" fill="#DB0A0B"/>
</svg>
