<svg width="42" height="41" viewBox="0 0 42 41" fill="none" xmlns="http://www.w3.org/2000/svg">
<rect width="2" height="41" fill="#F2C671"/>
<path d="M2 1H42V35C42 38.3137 39.3137 41 36 41H2V1Z" fill="#DB0A0B"/>
<path fill-rule="evenodd" clip-rule="evenodd" d="M24.3703 16.122C24.0155 14.9157 22.8448 14.0643 21.5144 14.0643C20.184 14.0643 19.0133 14.898 18.694 16.122C18.5521 16.5831 18.1264 16.8847 17.6652 16.8847C17.612 16.8847 17.541 16.8847 17.4878 16.867C17.3282 16.8492 17.1685 16.8315 17.0266 16.8315C16.2461 16.8315 15.5011 17.133 14.9512 17.6652C14.4013 18.1973 14.0998 18.8891 14.0998 19.6341C14.0998 20.1663 14.2594 20.6984 14.561 21.1419C14.7916 21.4967 15.1286 21.816 15.5188 22.0288C15.7849 22.1885 15.98 22.4368 16.0333 22.7384C16.0865 23.0399 16.0155 23.3415 15.8381 23.5898C15.4834 24.051 15.306 24.6009 15.306 25.1685C15.306 25.8958 15.6075 26.5876 16.1574 27.1197C16.7073 27.6519 17.4523 27.9534 18.2328 27.9534C18.8004 27.9534 19.3503 27.7938 19.8115 27.51C20.1486 27.2971 20.4324 27.0133 20.663 26.694C20.8581 26.4102 21.1951 26.2328 21.5322 26.2328C21.8692 26.2328 22.2062 26.4102 22.4013 26.694C22.6142 27.031 22.9157 27.2971 23.2528 27.51C23.7317 27.7938 24.2639 27.9534 24.8315 27.9534C25.612 27.9534 26.357 27.6519 26.9069 27.1197C27.4568 26.6053 27.7583 25.9135 27.7583 25.1685C27.7583 24.6186 27.5809 24.0687 27.2262 23.5898C27.031 23.3415 26.9601 23.0399 27.031 22.7384C27.102 22.4368 27.2794 22.1885 27.5455 22.0288C27.918 21.816 28.255 21.4967 28.5033 21.1419C28.8049 20.6984 28.9645 20.1663 28.9645 19.6341C28.9645 18.8891 28.663 18.1973 28.1131 17.6652C27.5632 17.133 26.8182 16.8315 26.0377 16.8315C25.8958 16.8315 25.7361 16.8315 25.5765 16.867C25.5233 16.8847 25.4523 16.8847 25.3991 16.8847C24.9202 16.8847 24.5122 16.5831 24.3703 16.122ZM17.6475 15.8204C18.1264 14.1707 19.7051 13 21.5144 13C23.3237 13 24.9024 14.1707 25.3814 15.8027C25.612 15.7672 25.8248 15.7494 26.0377 15.7494C27.102 15.7494 28.1131 16.1574 28.8581 16.8847C29.6208 17.612 30.0288 18.5876 30.0288 19.6164C30.0288 20.3614 29.7982 21.0887 29.3725 21.7095C29.0355 22.2239 28.592 22.6319 28.0599 22.9335C28.5388 23.5898 28.8049 24.3526 28.8049 25.1508C28.8049 26.1973 28.3969 27.1552 27.6341 27.8825C26.8714 28.6098 25.878 29 24.8137 29C24.051 29 23.3237 28.7871 22.6851 28.3969C22.2239 28.0953 21.816 27.7228 21.5144 27.2794C21.2129 27.7228 20.8049 28.1131 20.3437 28.3969C19.7051 28.7871 18.9778 29 18.2151 29C17.1508 29 16.1397 28.6098 15.3947 27.8825C14.6319 27.1552 14.2239 26.1796 14.2239 25.1508C14.2239 24.3526 14.49 23.5898 14.969 22.9335C14.4545 22.6319 13.9933 22.2062 13.6563 21.7095C13.2306 21.0887 13 20.3614 13 19.6164C13 18.5876 13.408 17.612 14.1707 16.9024C14.9335 16.1752 15.9268 15.7672 16.9911 15.7672C17.204 15.7672 17.4169 15.7849 17.6475 15.8204ZM18.6231 21C18.6231 22.561 19.918 23.8204 21.5144 23.8204C23.1109 23.8204 24.4058 22.561 24.4058 21C24.4058 19.439 23.1109 18.1796 21.5144 18.1796C19.918 18.1796 18.6231 19.439 18.6231 21ZM19.6874 21C19.6874 20.0244 20.5033 19.2439 21.5144 19.2439C22.5255 19.2439 23.3415 20.0244 23.3415 21C23.3415 21.9756 22.5255 22.7561 21.5144 22.7561C20.5033 22.7561 19.6874 21.9756 19.6874 21Z" fill="white"/>
</svg>
