<svg width="42" height="41" viewBox="0 0 42 41" fill="none" xmlns="http://www.w3.org/2000/svg">
<rect width="2" height="41" fill="#F2C671"/>
<path d="M2 1H42V35C42 38.3137 39.3137 41 36 41H2V1Z" fill="#DB0A0B"/>
<path d="M28.7692 13H15.2308C14.551 13 14 13.551 14 14.2308V27.7692C14 28.449 14.551 29 15.2308 29H28.7692C29.449 29 30 28.449 30 27.7692V14.2308C30 13.551 29.449 13 28.7692 13ZM29.3846 27.7692C29.3846 28.1091 29.1091 28.3846 28.7692 28.3846H15.2308C14.8909 28.3846 14.6154 28.1091 14.6154 27.7692V14.2308C14.6154 13.8909 14.8909 13.6154 15.2308 13.6154H28.7692C29.1091 13.6154 29.3846 13.8909 29.3846 14.2308V27.7692ZM17.3628 19.3419C17.372 19.3543 17.3818 19.3663 17.393 19.3775L19.0007 20.9853L18.3791 23.3054C18.3751 23.3205 18.3724 23.3358 18.3708 23.3513C18.267 23.6256 18.3253 23.9471 18.5461 24.1679C18.7669 24.3888 19.0885 24.447 19.3627 24.3432C19.378 24.3415 19.3933 24.339 19.4086 24.3349L22 23.6604L24.5914 24.3349C24.6067 24.339 24.622 24.3415 24.6373 24.3432C24.9115 24.447 25.2331 24.3888 25.4539 24.1679C25.6747 23.9472 25.733 23.6256 25.6292 23.3513C25.6276 23.3358 25.6249 23.3205 25.6209 23.3054L24.9993 20.9853L26.607 19.3775C26.618 19.3664 26.628 19.3545 26.6372 19.3419C26.8642 19.1563 26.9745 18.8487 26.8937 18.547C26.8128 18.2454 26.5635 18.0341 26.2741 17.9869C26.2599 17.9805 26.2452 17.9753 26.2302 17.9711L23.8855 17.3429L22.728 15.338C22.7201 15.3246 22.7112 15.3118 22.7014 15.2997C22.5809 15.0323 22.3123 14.8462 22 14.8462C21.6877 14.8462 21.4191 15.0323 21.2986 15.2997C21.2888 15.3117 21.2799 15.3245 21.272 15.338L20.1145 17.3428L17.7698 17.9711C17.7545 17.9752 17.74 17.9807 17.7259 17.9869C17.4365 18.0341 17.1872 18.2454 17.1063 18.547C17.0255 18.8487 17.1358 19.1563 17.3628 19.3419ZM17.7379 18.7162C17.7476 18.6801 17.7676 18.6476 17.7955 18.6227C17.8234 18.5977 17.858 18.5815 17.895 18.5759L17.8959 18.5724C17.9071 18.5707 17.9182 18.5684 17.9291 18.5655L20.297 17.931C20.407 17.9348 20.5153 17.8793 20.5742 17.7774L21.8049 15.6457C21.8107 15.6357 21.8157 15.6256 21.8202 15.6154H21.8238C21.8535 15.5475 21.9212 15.5 22 15.5C22.0788 15.5 22.1465 15.5475 22.1762 15.6154H22.1798C22.1843 15.6256 22.1893 15.6358 22.1951 15.6457L23.4258 17.7774C23.4847 17.8793 23.593 17.9348 23.7029 17.931L26.0709 18.5655C26.082 18.5685 26.093 18.5707 26.1041 18.5724L26.105 18.5759C26.1783 18.587 26.2417 18.6401 26.2621 18.7162C26.2825 18.7924 26.2542 18.8701 26.1962 18.9163L26.1972 18.9198C26.1885 18.9268 26.18 18.9343 26.1719 18.9424L24.4313 20.6829C24.3307 20.7836 24.3147 20.9364 24.3826 21.0541C24.3843 21.065 24.3865 21.076 24.3894 21.087L25.0265 23.4647C25.0295 23.4757 25.0331 23.4864 25.0372 23.4968L25.0346 23.4994C25.0616 23.5684 25.0473 23.6499 24.9916 23.7056C24.9358 23.7614 24.8544 23.7756 24.7854 23.7486L24.7828 23.7512C24.7723 23.7471 24.7616 23.7435 24.7507 23.7405L22.0076 23.0265L22 23.0549L21.9924 23.0265L19.2493 23.7405C19.2383 23.7435 19.2276 23.7471 19.2172 23.7512L19.2146 23.7486C19.1456 23.7756 19.0642 23.7613 19.0084 23.7056C18.9527 23.6498 18.9384 23.5684 18.9654 23.4994L18.9628 23.4968C18.9669 23.4864 18.9705 23.4757 18.9735 23.4646L19.6106 21.087C19.6135 21.076 19.6157 21.065 19.6174 21.0541C19.6853 20.9364 19.6693 20.7836 19.5687 20.6829L17.8281 18.9423C17.8201 18.9344 17.8116 18.9269 17.8028 18.9198L17.8037 18.9163C17.7459 18.8701 17.7175 18.7924 17.7379 18.7162ZM27.9945 24.6758L26.9286 24.0605C26.7814 23.9755 26.5933 24.0259 26.5083 24.1731C26.4233 24.3202 26.4738 24.5084 26.6209 24.5934L27.4157 25.0522L26.4831 26.5049C25.9619 26.3765 23.981 25.9231 22 25.9231C20.019 25.9231 18.0381 26.3765 17.5169 26.5049L16.5843 25.0522L17.3791 24.5934C17.5263 24.5084 17.5767 24.3202 17.4917 24.1731C17.4068 24.0259 17.2186 23.9755 17.0714 24.0605L16.0055 24.6759C15.9608 24.7016 15.9233 24.7382 15.8965 24.7823C15.8351 24.8763 15.8274 25.0006 15.8874 25.1045L17.0989 26.9917C17.1342 27.053 17.1895 27.1002 17.2556 27.1253C17.296 27.1441 17.3401 27.1538 17.3846 27.1539C17.3846 27.1539 19.6923 26.5385 22 26.5385C24.3077 26.5385 26.6154 27.1539 26.6154 27.1539C26.6615 27.1539 26.7051 27.1434 26.7444 27.1253C26.8104 27.1002 26.8658 27.053 26.9011 26.9917L28.1126 25.1045C28.1726 25.0006 28.1648 24.8764 28.1034 24.7823C28.0767 24.7382 28.0392 24.7016 27.9945 24.6758Z" fill="white"/>
</svg>
