<svg width="32" height="27" viewBox="0 0 32 27" fill="none" xmlns="http://www.w3.org/2000/svg">
<path fill-rule="evenodd" clip-rule="evenodd" d="M3.00187 0H28.531C29.9797 0 31.1533 1.22168 31.1524 2.73001V19.5853C31.1524 21.0956 29.8056 22.3836 28.356 22.3836H17.1647V25.1781H24.159V27H7.37201V25.1781H14.3673V22.3836H3.17502C1.72536 22.3836 0.376709 21.0956 0.376709 19.5853V2.73001C0.376709 1.22168 1.55029 0 3.00187 0ZM20.747 20.4866L29.3333 20.5636V1.82097H2.19864V20.5636L19.4358 20.4799V20.4732L19.8773 20.477L20.7498 20.4732L20.747 20.4866ZM18.6999 12.6073C19.026 12.6073 19.2761 12.3592 19.2761 12.0331C19.2761 11.9596 19.2577 11.8869 19.2393 11.8144L19.2367 11.8041C19.459 11.5848 19.6955 11.3805 19.9447 11.1923C20.1551 12.3216 20.6788 13.3689 21.4559 14.2148C21.2443 14.4985 21.0163 14.7477 20.7672 14.9968C20.6689 14.9197 20.5466 14.8799 20.4218 14.8843C20.3038 14.883 20.1885 14.9194 20.0925 14.988C19.9965 15.0567 19.9249 15.1541 19.8879 15.2662C19.1325 15.0844 18.4095 14.7872 17.7447 14.385C17.9152 13.744 18.1929 13.1364 18.5662 12.5881C18.5842 12.5881 18.6017 12.5921 18.6208 12.5964C18.6437 12.6016 18.669 12.6073 18.6999 12.6073ZM18.4114 9.07343C19.0488 8.80923 19.7319 8.67316 20.4218 8.67297C21.8152 8.67258 23.1516 9.22573 24.1372 10.2107C25.1227 11.1957 25.6766 12.5318 25.677 13.9252C25.6773 15.3186 25.1242 16.655 24.1392 17.6406C23.1542 18.6261 21.8181 19.18 20.4247 19.1803C19.0313 19.1807 17.6949 18.6276 16.7094 17.6426C16.5694 17.5027 16.4382 17.3558 16.316 17.2026H6.41004V5.19166H16.5076V10.4239C16.5721 10.3519 16.6386 10.2815 16.7073 10.2128C17.195 9.72477 17.7741 9.33763 18.4114 9.07343ZM16.5076 12.376C16.5156 12.3557 16.5238 12.3355 16.5321 12.3154C16.7429 11.8043 17.0527 11.3399 17.4436 10.9489C17.8346 10.558 18.299 10.2482 18.8101 10.0374C19.3212 9.82656 19.8689 9.71888 20.4218 9.72053C20.9749 9.71875 21.5228 9.82633 22.0342 10.0371C22.5455 10.2478 23.0101 10.5575 23.4013 10.9485C23.7925 11.3394 24.1026 11.8038 24.3137 12.315C24.5248 12.8262 24.6327 13.3741 24.6313 13.9271C24.6328 14.4803 24.525 15.0283 24.314 15.5397C24.103 16.051 23.7929 16.5156 23.4017 16.9068C23.0105 17.2979 22.5459 17.6078 22.0345 17.8187C21.523 18.0296 20.975 18.1373 20.4218 18.1357C19.8688 18.1371 19.3211 18.0291 18.8099 17.8181C18.2988 17.6071 17.8344 17.2971 17.4435 16.906C17.0526 16.5149 16.7428 16.0504 16.532 15.5392C16.5237 15.5191 16.5156 15.4989 16.5076 15.4787V12.376ZM15.7583 11.5102V5.73035H7.16036V16.6639H15.7583V16.3431C15.3752 15.6035 15.1698 14.7764 15.1696 13.9281C15.1693 13.0788 15.3748 12.2507 15.7583 11.5102ZM22.0998 13.0499C21.9724 13.3358 21.8455 13.6206 21.6656 13.8887C20.9335 13.0593 20.4557 12.0368 20.2891 10.9432C20.7298 10.6727 21.2069 10.4666 21.706 10.3314C21.9972 10.4261 22.2737 10.5612 22.5275 10.7325V10.8662C22.5275 11.2683 22.489 11.6512 22.4121 12.0331C22.1447 12.0908 21.9542 12.3207 21.9542 12.5881C21.9521 12.6636 21.9665 12.7386 21.9962 12.808C22.0259 12.8775 22.0703 12.9396 22.1264 12.9902L22.0998 13.0499ZM17.1714 15.8385V15.9338C16.828 15.3585 16.6163 14.7111 16.5971 14.0022C16.8206 14.1972 17.0575 14.3762 17.3061 14.538C17.2291 14.9593 17.1714 15.3989 17.1714 15.8385ZM21.2832 15.4494C21.188 15.4444 21.0928 15.4393 20.998 15.4393C20.998 15.3999 20.998 15.3585 20.9769 15.3229C21.2459 15.0677 21.4951 14.7925 21.7224 14.4995C22.0561 14.825 22.429 15.1078 22.8325 15.3412C22.4294 15.4182 22.011 15.4595 21.5685 15.4595C21.4737 15.4595 21.3785 15.4545 21.2832 15.4494ZM20.4218 10.1024C20.6338 10.1022 20.8453 10.1212 21.0538 10.1592C20.7854 10.2737 20.5171 10.3891 20.2516 10.5228C20.2323 10.3891 20.2323 10.2544 20.2323 10.1217C20.2881 10.1024 20.3641 10.1024 20.4218 10.1024ZM22.7738 12.0715C22.8507 11.7272 22.8902 11.3828 22.8902 11.0201C23.4504 11.498 23.8604 12.1276 24.0709 12.8332C24.2813 13.5388 24.2832 14.2902 24.0763 14.9968C23.8656 15.093 23.6347 15.1681 23.3875 15.2277C22.8492 14.9574 22.3581 14.6021 21.933 14.1753C22.1381 13.852 22.3179 13.5134 22.4708 13.1624H22.5266C22.6023 13.1636 22.6774 13.1495 22.7476 13.121C22.8177 13.0926 22.8814 13.0503 22.9349 12.9967C22.9884 12.9432 23.0306 12.8794 23.0589 12.8092C23.0873 12.739 23.1012 12.6638 23.0999 12.5881C23.0993 12.4801 23.0684 12.3745 23.0108 12.2831C22.9531 12.1918 22.871 12.1185 22.7738 12.0715ZM18.7009 11.4405C18.3748 11.4405 18.1256 11.6896 18.1256 12.0148C18.1256 12.1485 18.1853 12.263 18.2622 12.3784C17.8794 12.9132 17.5937 13.5068 17.4205 14.157C17.1329 13.9656 16.8847 13.7559 16.6356 13.525C16.7331 12.688 17.1019 11.9058 17.6857 11.298C18.2695 10.6902 19.0362 10.2903 19.8687 10.1592C19.8687 10.3461 19.8838 10.5178 19.9 10.7013V10.7013L19.9062 10.7719C19.5801 10.9999 19.2771 11.2491 18.9895 11.5165C18.8914 11.4607 18.7971 11.4405 18.7009 11.4405ZM20.8826 15.801C21.1106 15.8212 21.3424 15.8395 21.5685 15.8395C22.168 15.8375 22.7654 15.7672 23.349 15.6298C23.3964 15.6495 23.4437 15.6721 23.4911 15.6946L23.4912 15.6946C23.5777 15.7358 23.6645 15.7771 23.7521 15.802C23.4217 16.3948 22.9386 16.8883 22.3529 17.2312C21.7673 17.5741 21.1005 17.7539 20.4218 17.7518C19.5263 17.7492 18.6603 17.4315 17.9756 16.8543C18.7562 16.7062 19.4981 16.3994 20.1554 15.953C20.2335 16.0066 20.3271 16.0333 20.4218 16.029C20.5107 16.0272 20.598 16.0059 20.6777 15.9665C20.7573 15.9271 20.8273 15.8706 20.8826 15.801ZM17.6687 14.7679C18.3582 15.175 19.1069 15.4723 19.8879 15.649C19.8879 15.6663 19.8879 15.6663 19.9062 15.6846C19.224 16.1294 18.4545 16.4233 17.6495 16.5465C17.6241 16.5342 17.6159 16.5218 17.6073 16.5088C17.6048 16.5052 17.6024 16.5015 17.5995 16.4977C17.5975 16.4951 17.5953 16.4924 17.5927 16.4898L17.5899 16.459C17.5716 16.2587 17.5533 16.0591 17.5533 15.8395C17.5533 15.4768 17.5927 15.1113 17.6687 14.7679ZM9.60375 6.98566L8.10503 6.98951C8.00643 6.98951 7.91186 7.02868 7.84214 7.09841C7.77241 7.16813 7.73324 7.2627 7.73324 7.3613C7.73324 7.45991 7.77241 7.55448 7.84214 7.6242C7.91186 7.69393 8.00643 7.7331 8.10503 7.7331L9.60375 7.72829C9.70223 7.72829 9.79667 7.68917 9.86631 7.61953C9.93594 7.5499 9.97506 7.45545 9.97506 7.35698C9.97506 7.2585 9.93594 7.16405 9.86631 7.09442C9.79667 7.02478 9.70223 6.98566 9.60375 6.98566ZM12.201 6.98566L10.7023 6.98951C10.6037 6.98951 10.5091 7.02868 10.4394 7.09841C10.3697 7.16813 10.3305 7.2627 10.3305 7.3613C10.3305 7.45991 10.3697 7.55448 10.4394 7.6242C10.5091 7.69393 10.6037 7.7331 10.7023 7.7331L12.201 7.72925C12.2996 7.72925 12.3942 7.69008 12.4639 7.62035C12.5336 7.55063 12.5728 7.45606 12.5728 7.35746C12.5728 7.25885 12.5336 7.16428 12.4639 7.09456C12.3942 7.02483 12.2996 6.98566 12.201 6.98566ZM14.7992 6.98566L13.2996 6.98951C13.201 6.98951 13.1064 7.02868 13.0367 7.09841C12.9669 7.16813 12.9278 7.2627 12.9278 7.3613C12.9278 7.45991 12.9669 7.55448 13.0367 7.6242C13.1064 7.69393 13.201 7.7331 13.2996 7.7331L14.7992 7.72925C14.8946 7.7244 14.9844 7.68311 15.0502 7.61392C15.1159 7.54473 15.1526 7.45291 15.1526 7.35746C15.1526 7.262 15.1159 7.17019 15.0502 7.10099C14.9844 7.0318 14.8946 6.99051 14.7992 6.98566ZM9.60375 8.84319L8.10503 8.84511C8.00643 8.84511 7.91186 8.88428 7.84214 8.95401C7.77241 9.02373 7.73324 9.1183 7.73324 9.2169C7.73324 9.31551 7.77241 9.41008 7.84214 9.4798C7.91186 9.54953 8.00643 9.5887 8.10503 9.5887L9.60375 9.58485C9.69884 9.58001 9.78843 9.53882 9.85401 9.46981C9.9196 9.4008 9.95617 9.30923 9.95617 9.21402C9.95617 9.11881 9.9196 9.02724 9.85401 8.95823C9.78843 8.88921 9.69884 8.84803 9.60375 8.84319ZM12.201 8.84319L10.7023 8.84511C10.6037 8.84511 10.5091 8.88428 10.4394 8.95401C10.3697 9.02373 10.3305 9.1183 10.3305 9.2169C10.3305 9.31551 10.3697 9.41008 10.4394 9.4798C10.5091 9.54953 10.6037 9.5887 10.7023 9.5887L12.201 9.58485C12.2961 9.58001 12.3857 9.53882 12.4513 9.46981C12.5169 9.4008 12.5534 9.30923 12.5534 9.21402C12.5534 9.11881 12.5169 9.02724 12.4513 8.95823C12.3857 8.88921 12.2961 8.84803 12.201 8.84319ZM14.7992 8.84319L13.2996 8.84511C13.201 8.84511 13.1064 8.88428 13.0367 8.95401C12.9669 9.02373 12.9278 9.1183 12.9278 9.2169C12.9278 9.31551 12.9669 9.41008 13.0367 9.4798C13.1064 9.54953 13.201 9.5887 13.2996 9.5887L14.7992 9.58485C14.8976 9.58485 14.9919 9.54578 15.0615 9.47624C15.131 9.40669 15.1701 9.31237 15.1701 9.21402C15.1701 9.11567 15.131 9.02135 15.0615 8.9518C14.9919 8.88226 14.8976 8.84319 14.7992 8.84319ZM9.60375 10.6978L8.10503 10.7007C8.00656 10.7007 7.91211 10.7398 7.84248 10.8095C7.77284 10.8791 7.73372 10.9735 7.73372 11.072C7.73372 11.1705 7.77284 11.2649 7.84248 11.3346C7.91211 11.4042 8.00656 11.4433 8.10503 11.4433L9.60375 11.4395C9.69884 11.4346 9.78843 11.3935 9.85401 11.3244C9.9196 11.2554 9.95617 11.1639 9.95617 11.0687C9.95617 10.9734 9.9196 10.8819 9.85401 10.8129C9.78843 10.7439 9.69884 10.7027 9.60375 10.6978ZM12.201 10.6978L10.7023 10.7007C10.6038 10.7007 10.5094 10.7398 10.4397 10.8095C10.3701 10.8791 10.331 10.9735 10.331 11.072C10.331 11.1705 10.3701 11.2649 10.4397 11.3346C10.5094 11.4042 10.6038 11.4433 10.7023 11.4433L12.201 11.4395C12.2961 11.4346 12.3857 11.3935 12.4513 11.3244C12.5169 11.2554 12.5534 11.1639 12.5534 11.0687C12.5534 10.9734 12.5169 10.8819 12.4513 10.8129C12.3857 10.7439 12.2961 10.7027 12.201 10.6978ZM14.7992 10.6978L13.2996 10.7007C13.2011 10.7007 13.1066 10.7398 13.037 10.8095C12.9674 10.8791 12.9282 10.9735 12.9282 11.072C12.9282 11.1705 12.9674 11.2649 13.037 11.3346C13.1066 11.4042 13.2011 11.4433 13.2996 11.4433L14.7992 11.4395C14.8943 11.4346 14.9839 11.3935 15.0495 11.3244C15.1151 11.2554 15.1517 11.1639 15.1517 11.0687C15.1517 10.9734 15.1151 10.8819 15.0495 10.8129C14.9839 10.7439 14.8943 10.7027 14.7992 10.6978Z" fill="#DB0A0B"/>
</svg>
