<svg width="30" height="30" viewBox="0 0 30 30" fill="none" xmlns="http://www.w3.org/2000/svg">
<circle cx="15" cy="15" r="15" fill="#DB0A0B"/>
<path d="M16.15 20.6857V23H14.85V20.6857C11.5675 20.4 9 17.9571 9 15H10.3C10.3 17.5143 12.64 19.5714 15.5 19.5714C18.36 19.5714 20.7 17.5143 20.7 15H22C22 17.9571 19.4325 20.4 16.15 20.6857ZM15.5 17.2857C16.93 17.2857 18.1 16.2571 18.1 15V9.28571C18.1 8.02857 16.93 7 15.5 7C14.07 7 12.9 8.02857 12.9 9.28571V15C12.9 16.2571 14.07 17.2857 15.5 17.2857Z" fill="white"/>
</svg>
