<svg width="42" height="41" viewBox="0 0 42 41" fill="none" xmlns="http://www.w3.org/2000/svg">
<rect width="2" height="41" fill="#F2C671"/>
<path d="M2 1H42V35C42 38.3137 39.3137 41 36 41H2V1Z" fill="#DB0A0B"/>
<path fill-rule="evenodd" clip-rule="evenodd" d="M15.7008 18.445H12V20.9162H13.4241L14.4712 23.0524L13.6335 24.8115L16.0209 27.1152L17.5707 26.1937L19.7068 27.1152L20 29H23.3089L23.6859 27.199L26.1571 26.0262L27.7068 26.9058L29.8848 24.3927L28.8796 22.8429L29.8848 20.7906L31.1832 20.5812V18.2775H27.3843C27.0877 15.325 24.577 13 21.5497 13C18.4654 13 15.9174 15.4134 15.7008 18.445ZM15.7008 19.2827H12.8377V20.0785H13.9686L15.4346 23.0524L14.6806 24.644L16.1466 26.0681L17.4869 25.2723L20.4607 26.5288L20.712 28.1623H22.6387L22.9738 26.6126L26.1571 25.1047L27.5393 25.8168L28.8377 24.3089L27.9162 22.9267L29.2984 20.0366L30.3455 19.8691V19.1152H27.4083C27.2755 22.225 24.6907 24.7277 21.5497 24.7277C18.4654 24.7277 15.9174 22.3144 15.7008 19.2827ZM21.5497 13.8377C18.7853 13.8377 16.5236 16.0995 16.5236 18.8639C16.5236 21.6283 18.7853 23.8901 21.5497 23.8901C24.3141 23.8901 26.5759 21.6283 26.5759 18.8639C26.5759 16.0995 24.3141 13.8377 21.5497 13.8377ZM21.7592 17.0628V18.0262H23.8115V20.3717V20.3717C23.8115 20.4974 23.8115 20.623 23.7696 20.7068C23.7277 20.7906 23.6859 20.8743 23.644 20.9162C23.6021 20.9581 23.5183 21 23.4346 21.0419C23.3508 21.0838 23.2251 21.0838 23.0995 21.0838L22.6806 21.1257L22.5131 20.6649L22.9738 20.623C23.0576 20.623 23.0995 20.623 23.1832 20.5811C23.2251 20.5811 23.267 20.5393 23.267 20.5393C23.3089 20.4974 23.3089 20.4974 23.3089 20.4136V18.4869H21.801V21.7958H21.2984V18.4869H19.7487V21.1257H19.2461V18.0262H21.2984V17.0628H18.6597V16.6021H21.3403L21.3403 16.6021C21.2984 16.4764 21.2565 16.3508 21.2147 16.1832C21.1728 16.0157 21.1309 15.9319 21.089 15.8482L21.5916 15.7644C21.5916 15.8063 21.6335 15.8901 21.6754 15.9319C21.6938 15.9687 21.7041 16.0054 21.7134 16.0386C21.7253 16.0811 21.7356 16.1178 21.7592 16.1414C21.7818 16.164 21.7922 16.2113 21.8036 16.2631C21.8133 16.307 21.8237 16.3542 21.8429 16.3927C21.8613 16.4294 21.8716 16.4661 21.8809 16.4993C21.8929 16.5418 21.9032 16.5786 21.9267 16.6021H24.5654V17.0628H21.7592Z" fill="white"/>
</svg>
