<svg width="26" height="24" viewBox="0 0 26 24" fill="none" xmlns="http://www.w3.org/2000/svg">
<path d="M24.8473 22.6517L19.1272 17.2471L19.1809 17.1812C20.7212 15.3136 21.5695 12.9621 21.5695 10.5612C21.5695 4.73809 16.7314 0 10.7861 0C4.83908 0 0 4.73809 0 10.5612C0 16.3844 4.83908 21.122 10.7861 21.122C13.3919 21.122 15.9094 20.1944 17.8749 18.5126L17.9394 18.4574L23.6457 23.8017H23.7029L23.7039 23.848C23.8483 23.9475 24.0109 24 24.1879 24C24.6603 24 25.0435 23.6229 25.0435 23.1622C25.0434 22.9844 24.9781 22.8118 24.8473 22.6517ZM10.7861 19.4438C5.78402 19.4438 1.7152 15.4595 1.7152 10.5613C1.7152 5.66353 5.78402 1.68005 10.7861 1.68005C15.7868 1.68005 19.8557 5.66353 19.8557 10.5613C19.8557 15.4595 15.7868 19.4438 10.7861 19.4438Z" fill="#B3B3B3"/>
</svg>
