<svg width="20" height="19" viewBox="0 0 20 19" fill="none" xmlns="http://www.w3.org/2000/svg">
<path fill-rule="evenodd" clip-rule="evenodd" d="M0.00172234 1.4469V13.6422C-0.015379 14.0311 0.0971355 14.4146 0.321604 14.7326C0.546072 15.0506 0.869783 15.285 1.24192 15.3991H9.09652V16.7427H3.72232C3.64089 16.7427 3.56025 16.7587 3.48502 16.7899C3.40978 16.8211 3.34142 16.8667 3.28384 16.9243C3.22626 16.9819 3.18059 17.0503 3.14942 17.1255C3.11826 17.2007 3.10222 17.2814 3.10222 17.3628C3.10043 17.538 3.1623 17.708 3.27635 17.841C3.3904 17.9741 3.54887 18.0612 3.72232 18.0862H15.9176C16.0911 18.0612 16.2495 17.9741 16.3636 17.841C16.4776 17.708 16.5395 17.538 16.5377 17.3628C16.5377 17.1983 16.4724 17.0406 16.3561 16.9243C16.2398 16.808 16.0821 16.7427 15.9176 16.7427H10.5434V15.3991H17.4679C17.9255 15.4305 18.3844 15.3599 18.8114 15.1924C19.0601 15.016 19.2644 14.784 19.4079 14.5149C19.5514 14.2459 19.6302 13.9471 19.6382 13.6422V2.2737C19.6991 1.77032 19.59 1.26104 19.3282 0.8268C19.0897 0.439907 18.7245 0.147699 18.2947 0H1.75867C1.34695 0.0126287 0.951069 0.161548 0.633101 0.423404C0.315132 0.685259 0.0930634 1.04524 0.00172234 1.4469ZM1.44862 13.9522V13.7455V13.6422H1.34527V1.6536H18.088C18.088 1.68101 18.0989 1.7073 18.1182 1.72668C18.1376 1.74606 18.1639 1.75695 18.1913 1.75695H18.2947V13.9522H1.44862ZM12.8119 7.23969C12.6762 7.10401 12.4922 7.02779 12.3004 7.02779C12.1085 7.02779 11.9245 7.10401 11.7888 7.23969C11.6531 7.37536 11.5769 7.55937 11.5769 7.75124C11.5769 7.94311 11.6531 8.12713 11.7888 8.2628C11.9245 8.39847 12.1085 8.47469 12.3004 8.47469C12.4922 8.47469 12.6762 8.39847 12.8119 8.2628C12.9476 8.12713 13.0238 7.94311 13.0238 7.75124C13.0238 7.55937 12.9476 7.37536 12.8119 7.23969ZM10.3315 7.23969C10.1958 7.10401 10.0118 7.02779 9.81997 7.02779C9.6281 7.02779 9.44408 7.10401 9.30841 7.23969C9.17274 7.37536 9.09652 7.55937 9.09652 7.75124C9.09652 7.94311 9.17274 8.12713 9.30841 8.2628C9.44408 8.39847 9.6281 8.47469 9.81997 8.47469C10.0118 8.47469 10.1958 8.39847 10.3315 8.2628C10.4672 8.12713 10.5434 7.94311 10.5434 7.75124C10.5434 7.55937 10.4672 7.37536 10.3315 7.23969ZM7.85112 7.23969C7.71545 7.10401 7.53144 7.02779 7.33957 7.02779C7.1477 7.02779 6.96368 7.10401 6.82801 7.23969C6.69234 7.37536 6.61612 7.55937 6.61612 7.75124C6.61612 7.94311 6.69234 8.12713 6.82801 8.2628C6.96368 8.39847 7.1477 8.47469 7.33957 8.47469C7.53144 8.47469 7.71545 8.39847 7.85112 8.2628C7.9868 8.12713 8.06302 7.94311 8.06302 7.75124C8.06302 7.55937 7.9868 7.37536 7.85112 7.23969Z" fill="white"/>
</svg>
