<svg width="13" height="13" viewBox="0 0 13 13" fill="none" xmlns="http://www.w3.org/2000/svg">
<path d="M3.97219 12.6389C3.75553 12.6389 3.61108 12.5667 3.46664 12.4222C3.17775 12.1333 3.24997 11.7 3.53886 11.4111L8.16109 7.22222C8.30553 7.07777 8.37775 6.93333 8.37775 6.78889C8.37775 6.64444 8.30553 6.5 8.16109 6.35555L3.46664 2.38333C3.17775 2.09444 3.10553 1.66111 3.39442 1.37222C3.68331 1.08333 4.11664 1.01111 4.40553 1.3L9.02775 5.27222C9.46109 5.63333 9.74998 6.21111 9.74998 6.78889C9.74998 7.36666 9.53331 7.87222 9.09997 8.30555L4.47775 12.4944C4.3333 12.5667 4.11664 12.6389 3.97219 12.6389Z" fill="white"/>
</svg>
