<svg width="30" height="30" viewBox="0 0 30 30" fill="none" xmlns="http://www.w3.org/2000/svg">
<circle cx="15" cy="15" r="15" fill="#DB0A0B"/>
<path d="M19.4283 19.9302C19.3186 19.9283 19.2138 19.8833 19.1363 19.8047C19.0588 19.7261 19.0145 19.62 19.0129 19.509C19.0112 19.451 19.0223 19.3934 19.0453 19.3403C19.0683 19.2872 19.1027 19.2399 19.1459 19.2019L19.1541 19.1944L19.1636 19.1882C19.1827 19.1757 19.2007 19.1618 19.2175 19.1465L19.2241 19.1403L19.2315 19.1348C19.5031 18.9439 19.7529 18.7232 19.9764 18.4766C20.2124 18.2171 20.4208 17.9332 20.5981 17.6296C20.7774 17.3205 20.9179 16.9899 21.0164 16.6456C21.1646 16.1156 21.2037 15.5604 21.1313 15.0145C21.059 14.4686 20.8766 13.9435 20.5956 13.4718C20.2366 12.871 19.7591 12.3515 19.1928 11.9457C19.1211 11.8943 19.0673 11.8213 19.0391 11.737C19.0109 11.6528 19.0098 11.5617 19.036 11.4767C19.0621 11.3918 19.1142 11.3174 19.1847 11.2643C19.2551 11.2111 19.3405 11.1819 19.4283 11.1808C19.5191 11.1785 19.6074 11.2111 19.6754 11.2721L19.6849 11.28L19.6947 11.2871C20.0298 11.5267 20.3389 11.8014 20.617 12.1066C20.899 12.4143 21.1449 12.7541 21.3499 13.1189C21.555 13.4869 21.7156 13.8786 21.8283 14.2855C21.9429 14.6995 22.0006 15.1274 22 15.5574C22.0012 15.9921 21.9434 16.425 21.8283 16.8439C21.7143 17.2528 21.5514 17.646 21.3433 18.015C20.9285 18.7468 20.3566 19.375 19.6696 19.8531L19.6647 19.8564L19.6597 19.8597C19.5936 19.9099 19.5126 19.9356 19.43 19.9327L19.4283 19.9302ZM18.6564 17.6296C18.5983 17.6308 18.5407 17.6195 18.4873 17.5965C18.4339 17.5734 18.386 17.5391 18.3467 17.4959C18.3044 17.4534 18.271 17.4027 18.2487 17.3467C18.2264 17.2908 18.2157 17.2308 18.2171 17.1705C18.2176 17.1135 18.2283 17.057 18.2488 17.0039L18.2879 16.898L18.2924 16.8897C18.3204 16.8393 18.3509 16.7897 18.3838 16.7422C18.4501 16.6464 18.5151 16.546 18.5777 16.4443C18.6483 16.3264 18.7053 16.2006 18.7474 16.0694C18.7979 15.9034 18.8219 15.7302 18.8186 15.5565C18.8214 15.3871 18.7974 15.2183 18.7474 15.0566C18.7045 14.9247 18.6482 14.7976 18.5794 14.6775C18.518 14.5723 18.4528 14.4695 18.3838 14.3692C18.3279 14.2891 18.2827 14.2018 18.2496 14.1096V14.1009C18.2294 14.0495 18.2196 13.9945 18.2208 13.9392C18.2194 13.8789 18.2302 13.819 18.2525 13.7631C18.2748 13.7071 18.3081 13.6564 18.3505 13.6139C18.3897 13.5706 18.4376 13.5363 18.491 13.5133C18.5444 13.4902 18.602 13.4789 18.6601 13.4801C18.6983 13.4781 18.7366 13.4837 18.7727 13.4966C18.8088 13.5096 18.842 13.5296 18.8705 13.5555C18.9506 13.6331 19.0236 13.7181 19.0883 13.8093C19.2676 14.0568 19.4187 14.324 19.5387 14.6058C19.6542 14.9082 19.7092 15.2308 19.7005 15.5549C19.7053 15.8823 19.6477 16.2077 19.5309 16.5131C19.4197 16.7932 19.2716 17.0568 19.0907 17.2967L19.0883 17.2997C19.0236 17.3912 18.9506 17.4763 18.8701 17.5538C18.8417 17.5798 18.8086 17.5999 18.7726 17.6129C18.7365 17.6258 18.6983 17.6314 18.6601 17.6292L18.6564 17.6296ZM18.6564 17.5046C18.615 17.5059 18.5739 17.4981 18.5359 17.4817C18.4978 17.4653 18.4638 17.4407 18.4361 17.4096C18.405 17.3786 18.3805 17.3415 18.3642 17.3005C18.3479 17.2595 18.3401 17.2155 18.3414 17.1713C18.3415 17.1286 18.3495 17.0862 18.3649 17.0464L18.4007 16.9493C18.4268 16.9024 18.4551 16.8568 18.4855 16.8126C18.553 16.7147 18.6197 16.6127 18.6831 16.5085C18.7587 16.3824 18.8198 16.2479 18.8651 16.1077C18.9197 15.9289 18.9459 15.7424 18.9425 15.5553C18.9452 15.3728 18.9191 15.1911 18.8651 15.017C18.8196 14.8767 18.7596 14.7417 18.686 14.6142C18.6218 14.5038 18.5543 14.3971 18.4851 14.2975C18.4356 14.2264 18.3956 14.1489 18.3661 14.0671L18.3632 14.0596L18.3599 14.0517C18.3465 14.016 18.3402 13.9779 18.3414 13.9397C18.3401 13.8955 18.3479 13.8515 18.3642 13.8105C18.3805 13.7695 18.405 13.7324 18.4361 13.7014C18.4638 13.6703 18.4978 13.6457 18.5359 13.6293C18.5739 13.6129 18.615 13.6051 18.6564 13.6064C18.6787 13.6045 18.7011 13.6072 18.7224 13.6143C18.7436 13.6215 18.7632 13.633 18.7799 13.648C18.8542 13.7205 18.922 13.7995 18.9825 13.8843C19.1561 14.124 19.3025 14.3829 19.4189 14.6558C19.5281 14.9428 19.5799 15.2488 19.5712 15.5561C19.5761 15.8675 19.5214 16.1769 19.4102 16.4673C19.3035 16.737 19.1612 16.9908 18.987 17.2217V17.2247L18.9845 17.228C18.9243 17.3129 18.8563 17.3918 18.7815 17.4638C18.7648 17.4789 18.7452 17.4903 18.724 17.4975C18.7028 17.5047 18.6803 17.5074 18.658 17.5055L18.6564 17.5046ZM18.6564 17.5942C18.6032 17.5956 18.5503 17.5854 18.5013 17.5642C18.4524 17.5431 18.4085 17.5115 18.3727 17.4717C18.3336 17.4325 18.3028 17.3857 18.2822 17.334C18.2616 17.2824 18.2516 17.227 18.2529 17.1713C18.2531 17.1178 18.2631 17.0649 18.2825 17.0151L18.3208 16.9122L18.3253 16.9035C18.3521 16.8549 18.3814 16.8077 18.413 16.7622C18.4801 16.6652 18.5456 16.5643 18.6082 16.4618C18.6802 16.3417 18.7382 16.2135 18.7811 16.0798C18.8329 15.9102 18.8577 15.7332 18.8544 15.5557C18.857 15.3829 18.8324 15.2108 18.7815 15.0458C18.7379 14.9115 18.6805 14.7822 18.6103 14.66C18.5468 14.5517 18.4806 14.4471 18.413 14.3492C18.3591 14.2719 18.3154 14.1879 18.2829 14.0992V14.0884C18.2646 14.0415 18.2557 13.9913 18.257 13.9409C18.2557 13.8852 18.2657 13.8299 18.2863 13.7782C18.3069 13.7266 18.3377 13.6797 18.3768 13.6405C18.4126 13.6007 18.4565 13.5691 18.5055 13.548C18.5544 13.5269 18.6073 13.5167 18.6605 13.518C18.6942 13.516 18.7279 13.5207 18.7598 13.5319C18.7917 13.5431 18.821 13.5607 18.8462 13.5835C18.9247 13.6601 18.9962 13.7437 19.0599 13.8334C19.2374 14.0788 19.3871 14.3436 19.5062 14.6229C19.6197 14.9209 19.6737 15.2386 19.6651 15.5578C19.6701 15.8807 19.6133 16.2016 19.4979 16.5027C19.3881 16.7796 19.2419 17.0403 19.0631 17.2776L19.0599 17.2822C18.9964 17.3719 18.9248 17.4556 18.8462 17.5321C18.8211 17.5551 18.7918 17.5727 18.7599 17.584C18.728 17.5953 18.6942 17.6001 18.6605 17.5979L18.6564 17.5942ZM15.4931 22.9981C15.4519 22.9981 15.4107 22.9981 15.3696 22.9939C14.9963 22.9304 14.654 22.7445 14.3954 22.4648C13.8982 22.009 13.3969 21.5577 12.8918 21.1108C12.3594 20.6359 11.8625 20.1997 11.4141 19.8106C10.9317 19.3993 10.4475 18.99 9.96157 18.5828C9.91628 18.5828 9.87057 18.5862 9.8257 18.5862C9.72993 18.5959 9.63374 18.6008 9.53749 18.6007H9.29992C9.12949 18.6059 8.95976 18.5766 8.80068 18.5145C8.6416 18.4524 8.49638 18.3588 8.37354 18.2391C8.25484 18.1254 8.16048 17.9882 8.09632 17.8361C8.03215 17.6839 7.99955 17.5201 8.00052 17.3546V13.7693C7.99558 13.5912 8.02581 13.4139 8.08944 13.2478C8.15307 13.0817 8.24882 12.9301 8.37107 12.8019C8.4905 12.675 8.63472 12.5746 8.79455 12.5071C8.95439 12.4396 9.12635 12.4065 9.29951 12.4099H9.9348C10.669 11.7789 11.407 11.1524 12.1486 10.5305C12.448 10.2747 12.7452 10.0235 13.0318 9.78436C13.3184 9.54522 13.5823 9.324 13.8116 9.12861C14.0409 8.93321 14.2431 8.7624 14.4024 8.62867C14.6198 8.44703 14.682 8.39745 14.712 8.37495L14.7166 8.37162C14.969 8.1552 15.2826 8.02512 15.6125 8C15.643 7.99999 15.6735 8.00166 15.7039 8.005C15.8522 8.01972 15.9953 8.06869 16.122 8.14814C16.2487 8.22759 16.3557 8.3354 16.4347 8.46327C16.5726 8.68312 16.6644 8.92929 16.7044 9.18652C16.7438 9.40862 16.7646 9.6337 16.7665 9.85935V21.3375C16.764 21.5812 16.7237 21.823 16.6471 22.0541C16.5672 22.3178 16.4171 22.5542 16.2132 22.7373C16.0139 22.9118 15.7578 23.0053 15.4943 22.9998L15.4931 22.9981ZM10.109 17.6679C10.2126 17.668 10.313 17.7046 10.3931 17.7713C10.925 18.2158 11.4635 18.6699 11.991 19.1207L11.9934 19.1236C12.4463 19.5152 12.9445 19.9568 13.4802 20.4309C14.0158 20.905 14.521 21.3612 14.9953 21.7945C14.9971 21.7974 14.999 21.8002 15.0011 21.8028C15.1177 21.9434 15.2745 22.0438 15.4499 22.0903C15.4642 22.0936 15.4788 22.095 15.4935 22.0945C15.5421 22.097 15.59 22.0823 15.629 22.0528C15.7079 21.9761 15.7656 21.8799 15.7965 21.7737C15.8443 21.6328 15.87 21.4852 15.8727 21.3362V9.85768C15.8706 9.68397 15.8541 9.51074 15.8233 9.33983C15.8038 9.20449 15.7574 9.07453 15.687 8.9578C15.6801 8.94264 15.6692 8.92968 15.6556 8.92028C15.642 8.91089 15.6261 8.90542 15.6096 8.90447C15.4732 8.93846 15.347 9.00584 15.2423 9.10069C15.2263 9.11319 15.1678 9.15944 14.9661 9.32775C14.8084 9.4594 14.612 9.62521 14.3818 9.82102C14.1517 10.0168 13.8853 10.2414 13.595 10.483C13.3109 10.7201 13.0157 10.9688 12.7189 11.2229L12.7144 11.2267C11.9334 11.882 11.1563 12.542 10.3832 13.2068C10.3027 13.2761 10.2006 13.3142 10.095 13.3143H9.29787C9.24425 13.3117 9.19071 13.3209 9.14095 13.3412C9.09119 13.3616 9.04639 13.3926 9.00966 13.4322C8.94323 13.5017 8.90276 13.5925 8.8952 13.6889C8.90995 13.7577 8.90854 13.829 8.89108 13.8972V17.3551C8.89014 17.3995 8.89882 17.4436 8.91654 17.4843C8.93425 17.5249 8.96055 17.5612 8.9936 17.5904C9.03449 17.6283 9.08263 17.6573 9.13504 17.6756C9.18745 17.6939 9.24301 17.701 9.29828 17.6967H9.53584C9.60819 17.697 9.6805 17.6931 9.75241 17.685C9.76883 17.6833 9.78532 17.6825 9.80182 17.6825C9.89116 17.6825 9.98092 17.6784 10.0686 17.6704H10.1098L10.109 17.6679Z" fill="white"/>
</svg>
