<svg width="37" height="32" viewBox="0 0 37 32" fill="none" xmlns="http://www.w3.org/2000/svg">
<path d="M33.7521 15.3013L20.6922 29.1043H11.776L6.25174 22.837C5.97315 22.5583 5.81665 22.1804 5.81665 21.7863C5.81665 21.3923 5.97315 21.0144 6.25174 20.7357L22.7191 4.26834C22.9978 3.98975 23.3757 3.83325 23.7697 3.83325C24.1638 3.83325 24.5417 3.98975 24.8204 4.26834L33.7521 13.1993C33.8902 13.3373 33.9997 13.5012 34.0744 13.6815C34.1491 13.8619 34.1876 14.0551 34.1876 14.2503C34.1876 14.4455 34.1491 14.6388 34.0744 14.8192C33.9997 14.9995 33.8902 15.1633 33.7521 15.3013Z" fill="#FF9466" fill-opacity="0.5"/>
<path d="M34.8777 28.5463L22.5601 28.4943L35.6282 15.687C35.9951 15.3196 36.2012 14.8216 36.2012 14.3024C36.2012 13.7831 35.9951 13.2851 35.6282 12.9178L23.2667 0.572604C22.8987 0.205904 22.4004 0 21.881 0C21.3615 0 20.8632 0.205904 20.4952 0.572604L1.15167 19.8909C0.784924 20.2584 0.57895 20.7564 0.57895 21.2755C0.57895 21.7947 0.784924 22.2927 1.15167 22.6601L7.13292 28.6325L1.44962 28.5455C1.06509 28.5457 0.696373 28.6986 0.424538 28.9706C0.152703 29.2426 -5.04642e-08 29.6114 0 29.9959V29.8867C0.00078739 30.2707 0.153964 30.6388 0.425895 30.91C0.697826 31.1813 1.06628 31.3335 1.45036 31.3333H34.8785C35.0689 31.3334 35.2576 31.296 35.4336 31.2232C35.6096 31.1504 35.7695 31.0436 35.9043 30.909C36.039 30.7744 36.1459 30.6146 36.2189 30.4387C36.2919 30.2627 36.3295 30.0742 36.3296 29.8837V29.9959C36.3295 29.8054 36.2919 29.6168 36.2189 29.4409C36.1459 29.265 36.039 29.1052 35.9043 28.9705C35.7695 28.8359 35.6096 28.7292 35.4336 28.6564C35.2576 28.5836 35.0689 28.5462 34.8785 28.5463H34.8777ZM10.8175 29.9008L8.62711 27.7134L2.36055 21.4513C2.31359 21.4039 2.28724 21.34 2.28724 21.2733C2.28724 21.2066 2.31359 21.1427 2.36055 21.0953L21.7026 1.77703C21.75 1.72984 21.8141 1.70334 21.881 1.70334C21.9478 1.70334 22.0119 1.72984 22.0593 1.77703L34.42 14.1251C34.4669 14.1722 34.4932 14.2359 34.4932 14.3024C34.4932 14.3688 34.4669 14.4325 34.42 14.4796L21.1758 27.7134L18.9855 29.9008H10.8175ZM21.9553 3.86043C21.708 3.83117 21.4592 3.90057 21.2628 4.05358C21.0664 4.20658 20.9382 4.43086 20.9061 4.67775L19.1311 18.7541L5.20629 20.3226C4.96812 20.3495 4.74929 20.4666 4.59467 20.6497C4.44006 20.8329 4.36138 21.0683 4.37478 21.3076C4.38818 21.5469 4.49265 21.772 4.66674 21.9367C4.84084 22.1015 5.07137 22.1933 5.31105 22.1935C5.34655 22.1936 5.38203 22.1916 5.4173 22.1876L20.0769 20.5359C20.2866 20.5124 20.4822 20.419 20.6322 20.2707C20.7823 20.1224 20.878 19.9279 20.9039 19.7185L22.7704 4.9066C22.7857 4.78402 22.7768 4.65961 22.744 4.54049C22.7113 4.42138 22.6553 4.3099 22.5794 4.21244C22.5035 4.11499 22.4091 4.03347 22.3016 3.97255C22.1941 3.91164 22.0757 3.87253 21.953 3.85746L21.9553 3.86043Z" fill="#FF9466"/>
</svg>
