<svg width="42" height="41" viewBox="0 0 42 41" fill="none" xmlns="http://www.w3.org/2000/svg">
<rect width="2" height="41" fill="#F2C671"/>
<path d="M2 1H42V35C42 38.3137 39.3137 41 36 41H2V1Z" fill="#DB0A0B"/>
<path fill-rule="evenodd" clip-rule="evenodd" d="M15.7209 18.4746H12V20.9593H13.4318L14.4846 23.107L13.6424 24.8757L16.0428 27.1919L17.601 26.2654L19.7487 27.1919L20.0435 29.087H23.3704L23.7494 27.2761L26.234 26.097L27.7922 26.9813L29.982 24.4546L28.9713 22.8964L29.982 20.8329L31.2875 20.6224V18.3062H27.4679C27.1697 15.3376 24.6454 13 21.6016 13C18.5005 13 15.9387 15.4265 15.7209 18.4746ZM15.7209 19.3169H12.8422V20.117H13.9793L15.4532 23.107L14.6952 24.7073L16.1691 26.1391L17.5167 25.339L20.5067 26.6023L20.7594 28.2447H22.6966L23.0335 26.6865L26.234 25.1705L27.6237 25.8864L28.9292 24.3704L28.0027 22.9807L29.3924 20.0749L30.4453 19.9064V19.1484H27.492C27.3585 22.2751 24.7597 24.7915 21.6016 24.7915C18.5005 24.7915 15.9387 22.365 15.7209 19.3169ZM21.6016 13.8422C18.8222 13.8422 16.5481 16.1163 16.5481 18.8957C16.5481 21.6752 18.8222 23.9492 21.6016 23.9492C24.3811 23.9492 26.6551 21.6752 26.6551 18.8957C26.6551 16.1163 24.3811 13.8422 21.6016 13.8422ZM23.2861 17.1691C22.9914 17.3797 22.6545 17.5481 22.2754 17.7166C21.9803 17.8478 21.6852 17.9534 21.3502 18.0733C21.2551 18.1073 21.1567 18.1426 21.0542 18.1798H23.7915V21.7173H23.3283V21.2962H20.2119V21.7173H19.7066V18.5588L19.2012 18.6852L18.6959 18.8115L18.5274 18.3483C19.496 18.1798 20.3804 17.9272 21.0963 17.6745C21.8543 17.4218 22.486 17.127 23.0335 16.7901L23.2861 17.1691ZM20.8015 16.369C20.7331 16.4146 20.6647 16.4725 20.5896 16.5361C20.526 16.59 20.4576 16.648 20.3804 16.7059C20.2962 16.7691 20.2225 16.8217 20.1488 16.8743L20.1488 16.8743C20.0751 16.927 20.0014 16.9796 19.9171 17.0428C19.8329 17.106 19.7487 17.1586 19.6645 17.2112C19.5802 17.2639 19.496 17.3165 19.4118 17.3797C19.3061 17.459 19.2003 17.5217 19.105 17.5782L19.105 17.5782L19.105 17.5783C19.0485 17.6118 18.9956 17.6431 18.9486 17.6745L18.738 17.2112C18.9064 17.127 19.0749 17.0428 19.2012 16.9586C19.3299 16.8942 19.4586 16.8053 19.5685 16.7294L19.5685 16.7294L19.5685 16.7294C19.6025 16.7059 19.6346 16.6837 19.6645 16.6638C19.7808 16.6056 19.877 16.5274 19.9809 16.443L19.9809 16.443L19.9809 16.443C20.0274 16.4051 20.0756 16.366 20.1277 16.3269C20.1973 16.2573 20.2796 16.2005 20.3536 16.1495C20.414 16.1078 20.4689 16.07 20.5067 16.0321L20.8015 16.369ZM23.3283 18.5588H20.2119V19.0642H23.3283V18.5588ZM20.2119 19.9907H23.3283V19.4853H20.2119V19.9907ZM23.3283 20.875V20.3697H20.2119V20.875H23.3283ZM21.8964 17.2534H21.3911V15.5689H21.8964V17.2534ZM22.7808 15.9479C22.9071 15.99 23.0335 16.0742 23.2019 16.2005C23.2861 16.2427 23.3704 16.2953 23.4546 16.3479L23.4546 16.3479C23.5388 16.4006 23.623 16.4532 23.7073 16.4953C23.7915 16.5585 23.8757 16.6111 23.9599 16.6638L23.9599 16.6638C24.0442 16.7164 24.1284 16.7691 24.2126 16.8322C24.3811 16.9586 24.5074 17.0428 24.6337 17.127L24.4232 17.5481C24.2968 17.4639 24.1284 17.3376 23.9599 17.2112C23.7915 17.0849 23.623 16.9586 23.4546 16.8743C23.3704 16.8112 23.2861 16.7585 23.2019 16.7059L23.2019 16.7059C23.1177 16.6532 23.0335 16.6006 22.9492 16.5374C22.7808 16.4532 22.6545 16.369 22.5281 16.2848L22.7808 15.9479Z" fill="white"/>
</svg>
