<svg width="16" height="16" viewBox="0 0 16 16" fill="none" xmlns="http://www.w3.org/2000/svg">
<path d="M14.0406 7.04216C14.0406 3.70466 11.3344 0.998413 7.99687 0.998413C4.65937 0.998413 1.95312 3.70466 1.95312 7.04216C1.95312 9.73591 3.71563 12.0187 6.15 12.7984L7.41719 14.7562C7.72344 15.0625 8.22187 15.0625 8.52812 14.7562L9.78438 12.8156C12.25 12.0547 14.0406 9.75779 14.0406 7.04216ZM7.99687 9.08122C6.87031 9.08122 5.95781 8.16873 5.95781 7.04216C5.95781 5.9156 6.87031 5.0031 7.99687 5.0031C9.12344 5.0031 10.0359 5.9156 10.0359 7.04216C10.0359 8.16873 9.12344 9.08122 7.99687 9.08122Z" fill="#B3B3B3"/>
</svg>
